<svg width="39" height="37" viewBox="0 0 39 37" fill="none" xmlns="http://www.w3.org/2000/svg">
<g clip-path="url(#clip0_78_1279)">
<path d="M0 5.0332C0 2.27178 2.23858 0.0332031 5 0.0332031H33.2014C35.9628 0.0332031 38.2014 2.27178 38.2014 5.0332V31.609C38.2014 34.3704 35.9628 36.609 33.2014 36.609H5C2.23857 36.609 0 34.3704 0 31.609V5.0332Z" fill="#EAF2FF"/>
<path d="M25.7656 26.9863L17.2891 26.9766C16.9049 26.9766 16.5404 26.9342 16.1953 26.8496C15.8568 26.7715 15.5312 26.6445 15.2188 26.4688C14.9128 26.293 14.6263 26.0651 14.3594 25.7852L8.59766 19.8379C8.27865 19.5059 8.04427 19.1901 7.89453 18.8906C7.74479 18.5846 7.66992 18.2819 7.66992 17.9824C7.66992 17.7741 7.70247 17.5723 7.76758 17.377C7.83268 17.1751 7.93359 16.9701 8.07031 16.7617C8.20703 16.5534 8.38281 16.3418 8.59766 16.127L14.3496 10.1504C14.6165 9.87044 14.903 9.64583 15.209 9.47656C15.5215 9.30729 15.847 9.18685 16.1855 9.11523C16.5306 9.04362 16.8952 9.00781 17.2793 9.00781H25.7656C26.7878 9.00781 27.5527 9.26172 28.0605 9.76953C28.5749 10.2708 28.832 11.026 28.832 12.0352V23.959C28.832 24.9681 28.5749 25.7233 28.0605 26.2246C27.5527 26.7324 26.7878 26.9863 25.7656 26.9863ZM25.7461 25.4141C26.2344 25.4141 26.6087 25.2871 26.8691 25.0332C27.1296 24.7728 27.2598 24.3887 27.2598 23.8809V12.1133C27.2598 11.6055 27.1296 11.2246 26.8691 10.9707C26.6087 10.7103 26.2344 10.5801 25.7461 10.5801H17.25C16.8854 10.5801 16.5697 10.6224 16.3027 10.707C16.0423 10.7917 15.7852 10.9642 15.5312 11.2246L9.81836 17.1523C9.5319 17.4648 9.38867 17.7415 9.38867 17.9824C9.38867 18.1061 9.41797 18.2331 9.47656 18.3633C9.54167 18.487 9.6556 18.6335 9.81836 18.8027L15.541 24.7109C15.7949 24.9714 16.0521 25.1536 16.3125 25.2578C16.5729 25.362 16.8887 25.4141 17.2598 25.4141H25.7461ZM16.7129 22.123C16.498 22.123 16.3125 22.0449 16.1562 21.8887C16.0065 21.7324 15.9316 21.5469 15.9316 21.332C15.9316 21.1172 16.0098 20.9349 16.166 20.7852L18.9395 18.002L16.166 15.2188C16.0098 15.069 15.9316 14.8867 15.9316 14.6719C15.9316 14.457 16.0065 14.2747 16.1562 14.125C16.3125 13.9753 16.498 13.9004 16.7129 13.9004C16.9342 13.9004 17.1165 13.9785 17.2598 14.1348L20.043 16.9082L22.8555 14.125C23.0117 13.9622 23.1908 13.8809 23.3926 13.8809C23.6074 13.8809 23.7897 13.959 23.9395 14.1152C24.0957 14.265 24.1738 14.4473 24.1738 14.6621C24.1738 14.8704 24.0957 15.0527 23.9395 15.209L21.1562 18.002L23.9297 20.7754C24.0859 20.9316 24.1641 21.1172 24.1641 21.332C24.1641 21.5469 24.0859 21.7324 23.9297 21.8887C23.7799 22.0449 23.5977 22.123 23.3828 22.123C23.168 22.123 22.9824 22.0417 22.8262 21.8789L20.043 19.1055L17.2793 21.8789C17.1296 22.0417 16.9408 22.123 16.7129 22.123Z" fill="#0D1A54"/>
</g>
<defs>
<clipPath id="clip0_78_1279">
<path d="M0 5.0332C0 2.27178 2.23858 0.0332031 5 0.0332031H33.2014C35.9628 0.0332031 38.2014 2.27178 38.2014 5.0332V31.609C38.2014 34.3704 35.9628 36.609 33.2014 36.609H5C2.23857 36.609 0 34.3704 0 31.609V5.0332Z" fill="white"/>
</clipPath>
</defs>
</svg>
