<svg width="39" height="37" viewBox="0 0 39 37" fill="none" xmlns="http://www.w3.org/2000/svg">
<g clip-path="url(#clip0_78_1295)">
<path d="M0.798828 5.0332C0.798828 2.27178 3.0374 0.0332031 5.79883 0.0332031H34.0002C36.7617 0.0332031 39.0002 2.27178 39.0002 5.0332V31.609C39.0002 34.3704 36.7617 36.609 34.0002 36.609H5.79883C3.0374 36.609 0.798828 34.3704 0.798828 31.609V5.0332Z" fill="#2E66F5"/>
<path d="M10.4463 15.3037C10.4463 14.6201 10.6351 14.0993 11.0127 13.7412C11.3838 13.3831 11.8916 13.2041 12.5361 13.2041L16.9111 13.2041L16.9111 9.22949C16.9111 8.83236 17.0218 8.49707 17.2432 8.22363C17.471 7.9502 17.7705 7.81348 18.1416 7.81348C18.3695 7.81348 18.5713 7.8623 18.7471 7.95996C18.9229 8.06413 19.1051 8.21061 19.2939 8.39941L27.9756 17.1104C28.1709 17.2992 28.3174 17.4912 28.415 17.6865C28.5192 17.8883 28.5713 18.0967 28.5713 18.3115C28.5713 18.5329 28.5192 18.7412 28.415 18.9365C28.3174 19.1383 28.1709 19.3337 27.9756 19.5225L19.2939 28.2334C19.1182 28.4092 18.9391 28.5492 18.7568 28.6533C18.5745 28.764 18.3695 28.8193 18.1416 28.8193C17.7705 28.8193 17.471 28.6794 17.2432 28.3994C17.0218 28.126 16.9111 27.7907 16.9111 27.3936L16.9111 23.4287L12.5361 23.4287C11.8916 23.4287 11.3838 23.2497 11.0127 22.8916C10.6351 22.5335 10.4463 22.0127 10.4463 21.3291L10.4463 15.3037ZM11.96 15.46L11.96 21.1729C11.96 21.3486 12.0186 21.4951 12.1357 21.6123C12.2529 21.736 12.3994 21.7979 12.5752 21.7979L18.0537 21.7979C18.2751 21.7979 18.3857 21.9053 18.3857 22.1201L18.3857 26.6221C18.3857 26.6937 18.4118 26.7295 18.4639 26.7295C18.5029 26.7295 18.542 26.71 18.5811 26.6709L26.6865 18.5166C26.7256 18.484 26.7516 18.4515 26.7646 18.4189C26.7777 18.3864 26.7842 18.3506 26.7842 18.3115C26.7842 18.279 26.7777 18.2464 26.7646 18.2139C26.7516 18.1813 26.7256 18.1455 26.6865 18.1064L18.5811 9.95215C18.542 9.91309 18.5029 9.89355 18.4639 9.89355C18.4118 9.89355 18.3857 9.92936 18.3857 10.001L18.3857 14.5127C18.3857 14.7275 18.2751 14.835 18.0537 14.835L12.5752 14.835C12.3929 14.835 12.2464 14.8936 12.1357 15.0107C12.0186 15.1279 11.96 15.2777 11.96 15.46Z" fill="white"/>
</g>
<defs>
<clipPath id="clip0_78_1295">
<path d="M0.798828 5.0332C0.798828 2.27178 3.0374 0.0332031 5.79883 0.0332031H34.0002C36.7617 0.0332031 39.0002 2.27178 39.0002 5.0332V31.609C39.0002 34.3704 36.7617 36.609 34.0002 36.609H5.79883C3.0374 36.609 0.798828 34.3704 0.798828 31.609V5.0332Z" fill="white"/>
</clipPath>
</defs>
</svg>
